Coordinates
version=1
nRows=9
nColumns=24
inDegrees=yes

Units are S.I. units (second, meters, Newtons, ...)
Angles are in degrees.

endheader
time	pelvis_tilt	pelvis_list	pelvis_rotation	pelvis_tx	pelvis_ty	pelvis_tz	hip_flexion_r	hip_adduction_r	hip_rotation_r	knee_angle_r	ankle_angle_r	subtalar_angle_r	mtp_angle_r	hip_flexion_l	hip_adduction_l	hip_rotation_l	knee_angle_l	ankle_angle_l	subtalar_angle_l	mtp_angle_l	lumbar_extension	lumbar_bending	lumbar_rotation
      3.98000000	    -18.45904432	     -0.06985613	      8.90626477	     -1.74001064	     -0.03162035	     -0.26276201	     46.85948600	     -3.10268846	      3.15130981	     -8.26508899	     -3.03583571	     -8.71935546	      6.74437350	      0.13437154	      4.40383206	     16.60092912	    -13.78764796	     23.75497665	     16.79850623	    -61.49416491	     13.03031250	     -1.69462407	    -11.34701202
      3.98500000	    -18.47399414	     -0.20486582	      9.06519958	     -1.73169475	     -0.03329158	     -0.26239714	     47.07983735	     -3.00964260	      3.51260642	     -9.28117338	     -3.07692140	     -9.02325321	      6.83361642	      0.03562999	      4.19071643	     16.42424526	    -14.63690929	     23.78998382	     17.45224151	    -60.92494415	     13.13260069	     -1.62153588	    -11.46879254
      3.99000000	    -18.47218394	     -0.36009833	      9.20260936	     -1.72320071	     -0.03494398	     -0.26199751	     47.25160742	     -2.86190105	      3.86679596	    -10.31978640	     -3.18027636	     -9.29305689	      7.06422432	     -0.06734734	      3.94844322	     16.18392290	    -15.51447831	     23.75647485	     18.10440339	    -60.30441687	     13.24142262	     -1.52006087	    -11.56632687
      3.99500000	    -18.45300865	     -0.52685309	      9.29706781	     -1.71456242	     -0.03656928	     -0.26152372	     47.38612309	     -2.65269782	      4.19942867	    -11.37526829	     -3.40093687	     -9.49246574	      7.45165360	     -0.18483749	      3.68179989	     15.88380139	    -16.39730865	     23.63987238	     18.74710831	    -59.64919674	     13.34547582	     -1.39154657	    -11.61778129
      4.00000000	    -18.43050463	     -0.71473351	      9.34460737	     -1.70580851	     -0.03816326	     -0.26097435	     47.49508333	     -2.37808528	      4.46005696	    -12.40605428	     -3.85186171	     -9.67070237	      8.07533289	     -0.28330226	      3.38476470	     15.53519098	    -17.31627367	     23.42908863	     19.41128275	    -58.80836837	     13.45987954	     -1.22846995	    -11.61484398
      4.00500000	    -18.39583851	     -0.88140147	      9.43512370	     -1.69699881	     -0.03968024	     -0.26046622	     47.53981588	     -2.14302496	      4.70658546	    -13.32318459	     -4.80501990	    -10.23525558	      9.96113769	     -0.39333868	      3.12009372	     15.30824014	    -18.21676853	     22.79705549	     19.94192886	    -56.47531203	     13.56077575	     -1.09511198	    -11.71020224
      4.01000000	    -18.32680539	     -1.04277757	      9.35805110	     -1.68800873	     -0.04117991	     -0.25981449	     47.63534843	     -1.79043121	      4.75817594	    -14.46960513	     -5.30308845	     -9.93656731	     10.25541022	     -0.52970159	      2.84351447	     14.77147731	    -19.16210696	     22.43887535	     20.46907541	    -56.21430602	     13.63855447	     -0.90729940	    -11.56149806
      4.01500000	    -18.32676472	     -1.27763860	      9.27746304	     -1.67892990	     -0.04265483	     -0.25905909	     47.78639952	     -1.37043159	      4.72188077	    -15.55353668	     -6.23942442	     -9.93404552	     10.56707675	     -0.51712833	      2.47582652	     14.12205891	    -20.19844156	     21.99138667	     21.15167720	    -55.80808321	     13.81343646	     -0.66591609	    -11.42285090
      4.02000000	    -18.26031227	     -1.43564045	      9.17542203	     -1.66993852	     -0.04393623	     -0.25838793	     47.84484660	     -1.01775485	      4.70225530	    -16.46186591	     -7.99998669	    -10.50555232	     13.30381589	     -0.59547903	      2.20900159	     13.57391778	    -21.14883221	     20.60430760	     21.62885389	    -51.51020659	     13.88195213	     -0.46769763	    -11.24890257
